<svg width="171" height="167" viewBox="0 0 171 167" fill="none" xmlns="http://www.w3.org/2000/svg">
<path d="M156.171 79.0833C171.672 123.176 134.845 155.614 114.494 166.321C146.666 139.675 133.87 99.5238 132.774 79.0833C131.833 61.5629 148.128 61.1979 156.171 79.0833Z" fill="url(#paint0_linear_382_123)"/>
<path d="M27.7744 133.762C-11.0228 107.623 -0.867494 59.6508 9.05979 38.9324C-0.822858 79.4833 33.447 104.072 46.547 119.818C57.7756 133.315 44.92 143.319 27.7744 133.762Z" fill="url(#paint1_linear_382_123)"/>
<path d="M19.8544 48.3589C32.4071 3.34055 81.1989 -2.22789 104.026 0.615181C62.3706 4.09263 49.8579 44.3324 39.0446 61.7237C29.7761 76.6305 16.2023 67.6222 19.8544 48.3589Z" fill="url(#paint2_linear_382_123)"/>
<path d="M109.537 155.567C70.9349 181.992 29.9766 154.94 14.3228 138.11C48.4682 162.184 83.9631 139.393 103.444 133.013C120.142 127.544 124.739 143.156 109.537 155.567Z" fill="url(#paint3_linear_382_123)"/>
<path d="M101.316 12.6114C148.12 12.4223 166.763 57.7836 170.234 80.4879C155.548 41.4142 113.36 40.3415 93.6566 34.6847C76.7675 29.836 81.7564 14.344 101.316 12.6114Z" fill="url(#paint4_linear_382_123)"/>
<circle cx="85.1439" cy="83.3155" r="38.4077" fill="#101619"/>
<path d="M67.9266 100.825V66.0981H74.9578V100.825H67.9266Z" fill="white"/>
<path d="M80.2756 100.825V66.0981H88.7644C91.7084 66.0981 93.9949 66.484 95.6241 67.2557C97.2818 67.9988 98.4537 69.185 99.1396 70.8141C99.8256 72.4147 100.169 74.4726 100.169 76.9878V89.6352C100.169 92.2076 99.8256 94.3227 99.1396 95.9804C98.4537 97.6381 97.2961 98.8672 95.6669 99.6674C94.0664 100.439 91.8227 100.825 88.9359 100.825H80.2756ZM87.3496 95.8947H88.8502C90.1649 95.8947 91.0938 95.6946 91.6369 95.2944C92.2085 94.8657 92.5658 94.2512 92.7087 93.4509C92.8516 92.622 92.9231 91.6074 92.9231 90.4069V76.0875C92.9231 74.887 92.823 73.9296 92.623 73.215C92.4515 72.4719 92.0799 71.9288 91.5083 71.5858C90.9652 71.2429 90.0649 71.0714 88.8073 71.0714H87.3496V95.8947Z" fill="white"/>
<defs>
<linearGradient id="paint0_linear_382_123" x1="-26.6115" y1="268.993" x2="197.17" y2="40.849" gradientUnits="userSpaceOnUse">
<stop offset="0.26" stop-color="#40F0C1"/>
<stop offset="1" stop-color="#BFFD3E"/>
</linearGradient>
<linearGradient id="paint1_linear_382_123" x1="-26.6115" y1="268.993" x2="197.17" y2="40.849" gradientUnits="userSpaceOnUse">
<stop offset="0.26" stop-color="#40F0C1"/>
<stop offset="1" stop-color="#BFFD3E"/>
</linearGradient>
<linearGradient id="paint2_linear_382_123" x1="-26.6115" y1="268.993" x2="197.17" y2="40.849" gradientUnits="userSpaceOnUse">
<stop offset="0.26" stop-color="#40F0C1"/>
<stop offset="1" stop-color="#BFFD3E"/>
</linearGradient>
<linearGradient id="paint3_linear_382_123" x1="-26.6115" y1="268.993" x2="197.17" y2="40.849" gradientUnits="userSpaceOnUse">
<stop offset="0.26" stop-color="#40F0C1"/>
<stop offset="1" stop-color="#BFFD3E"/>
</linearGradient>
<linearGradient id="paint4_linear_382_123" x1="-26.6115" y1="268.993" x2="197.17" y2="40.849" gradientUnits="userSpaceOnUse">
<stop offset="0.26" stop-color="#40F0C1"/>
<stop offset="1" stop-color="#BFFD3E"/>
</linearGradient>
</defs>
</svg>
