<svg width="44" height="43" viewBox="0 0 44 43" fill="none" xmlns="http://www.w3.org/2000/svg">
<rect x="1.53424" y="1.03424" width="40.9315" height="40.9315" rx="20.4658" stroke="#FF0167" stroke-width="1.93153"/>
<mask id="path-2-outside-1_1117_60" maskUnits="userSpaceOnUse" x="1.5" y="1" width="41" height="41" fill="black">
<rect fill="white" x="1.5" y="1" width="41" height="41"/>
<path d="M41.5 21.5C41.5 32.2696 32.7696 41 22 41C11.2304 41 2.5 32.2696 2.5 21.5C2.5 10.7304 11.2304 2 22 2C32.7696 2 41.5 10.7304 41.5 21.5ZM7.78991 21.5C7.78991 29.348 14.152 35.7101 22 35.7101C29.848 35.7101 36.2101 29.348 36.2101 21.5C36.2101 13.652 29.848 7.28991 22 7.28991C14.152 7.28991 7.78991 13.652 7.78991 21.5Z"/>
</mask>
<path d="M41.5 21.5C41.5 32.2696 32.7696 41 22 41C11.2304 41 2.5 32.2696 2.5 21.5C2.5 10.7304 11.2304 2 22 2C32.7696 2 41.5 10.7304 41.5 21.5ZM7.78991 21.5C7.78991 29.348 14.152 35.7101 22 35.7101C29.848 35.7101 36.2101 29.348 36.2101 21.5C36.2101 13.652 29.848 7.28991 22 7.28991C14.152 7.28991 7.78991 13.652 7.78991 21.5Z" fill="#00B2CB"/>
<path d="M41.5 21.5C41.5 32.2696 32.7696 41 22 41C11.2304 41 2.5 32.2696 2.5 21.5C2.5 10.7304 11.2304 2 22 2C32.7696 2 41.5 10.7304 41.5 21.5ZM7.78991 21.5C7.78991 29.348 14.152 35.7101 22 35.7101C29.848 35.7101 36.2101 29.348 36.2101 21.5C36.2101 13.652 29.848 7.28991 22 7.28991C14.152 7.28991 7.78991 13.652 7.78991 21.5Z" stroke="white" stroke-width="1.93153" mask="url(#path-2-outside-1_1117_60)"/>
<path d="M22.4226 21.2153C22.0847 21.7846 21.6585 23.063 22.6566 23.622C23.6547 24.181 24.684 23.0268 25.0738 22.3798C25.3858 20.8012 24.9045 17.2919 20.8631 18.1874C17.2009 18.999 16.964 23.622 17.666 25.4853C19.4594 28.2544 24.2784 32.131 29.2066 25.4853C30.8442 22.1728 31.7175 15.1286 22.1107 13.4516C14.3906 12.7528 4.79944 25.1749 18.9136 33.8701C13.585 32.2139 4.72151 24.088 12.5192 13.2188C15.0256 9.72509 24.494 5.23354 31.4678 13.2188C33.8514 15.9481 37.0198 23.2184 31.4678 29.0567C28.7386 31.5929 21.7986 35.1435 15.8723 29.0567C9.59045 20.9049 20.8733 10.215 26.7554 18.4325C28.1387 20.365 28.5489 25.7304 24.2159 26.65C18.0219 27.2055 18.3676 19.6627 22.4226 21.2153Z" fill="#FF0066"/>
</svg>
